<svg width="175" height="24" viewBox="0 0 175 24" fill="none" xmlns="http://www.w3.org/2000/svg">
<g clip-path="url(#clip0_4_19)">
<path d="M5 10H13M5 18H13M5 14H9M1 21.4V2.6C1 2.44087 1.06321 2.28826 1.17574 2.17574C1.28826 2.06321 1.44087 2 1.6 2H13.252C13.4111 2.00014 13.5636 2.06345 13.676 2.176L16.824 5.324C16.88 5.3799 16.9243 5.44632 16.9545 5.51943C16.9847 5.59254 17.0002 5.6709 17 5.75V21.4C17 21.4788 16.9845 21.5568 16.9543 21.6296C16.9242 21.7024 16.88 21.7685 16.8243 21.8243C16.7685 21.88 16.7024 21.9242 16.6296 21.9543C16.5568 21.9845 16.4788 22 16.4 22H1.6C1.52121 22 1.44319 21.9845 1.37039 21.9543C1.29759 21.9242 1.23145 21.88 1.17574 21.8243C1.12002 21.7685 1.07583 21.7024 1.04567 21.6296C1.01552 21.5568 1 21.4788 1 21.4Z" stroke="#333333" stroke-width="1.5" stroke-linecap="round" stroke-linejoin="round"/>
<path d="M13 2V5.4C13 5.55913 13.0632 5.71174 13.1757 5.82426C13.2883 5.93679 13.4409 6 13.6 6H17" stroke="#333333" stroke-width="1.5" stroke-linecap="round" stroke-linejoin="round"/>
</g>
<path d="M27.598 19V4.45455H32.7827C33.9096 4.45455 34.8447 4.64867 35.5881 5.03693C36.3362 5.42519 36.8949 5.96259 37.2642 6.64915C37.6335 7.33097 37.8182 8.11932 37.8182 9.0142C37.8182 9.90436 37.6312 10.688 37.2571 11.3651C36.8878 12.0374 36.3291 12.5606 35.581 12.9347C34.8376 13.3087 33.9025 13.4957 32.7756 13.4957H28.848V11.6065H32.5767C33.2869 11.6065 33.8646 11.5047 34.3097 11.3011C34.7595 11.0975 35.0885 10.8016 35.2969 10.4134C35.5052 10.0251 35.6094 9.55871 35.6094 9.0142C35.6094 8.46496 35.5028 7.98911 35.2898 7.58665C35.0814 7.18419 34.7524 6.87642 34.3026 6.66335C33.8575 6.44555 33.2727 6.33665 32.5483 6.33665H29.7926V19H27.598ZM34.7784 12.4375L38.3722 19H35.8722L32.3494 12.4375H34.7784ZM44.8832 19.2202C43.8084 19.2202 42.8827 18.9905 42.1062 18.5312C41.3344 18.0672 40.7378 17.4162 40.3164 16.5781C39.8997 15.7353 39.6914 14.7481 39.6914 13.6165C39.6914 12.4991 39.8997 11.5142 40.3164 10.6619C40.7378 9.80966 41.3249 9.14441 42.0778 8.66619C42.8353 8.18797 43.7208 7.94886 44.734 7.94886C45.3496 7.94886 45.9461 8.05066 46.5238 8.25426C47.1014 8.45786 47.6199 8.77746 48.0792 9.21307C48.5385 9.64867 48.9007 10.2145 49.1658 10.9105C49.431 11.6018 49.5636 12.4422 49.5636 13.4318V14.1847H40.8917V12.5938H47.4826C47.4826 12.035 47.369 11.5402 47.1417 11.1094C46.9144 10.6738 46.5948 10.3305 46.1829 10.0795C45.7757 9.8286 45.2975 9.70312 44.7482 9.70312C44.1516 9.70312 43.6308 9.84991 43.1857 10.1435C42.7454 10.4323 42.4045 10.8111 42.163 11.2798C41.9263 11.7438 41.8079 12.2481 41.8079 12.7926V14.0355C41.8079 14.7647 41.9357 15.3849 42.1914 15.8963C42.4518 16.4077 42.814 16.7983 43.2781 17.0682C43.7421 17.3333 44.2842 17.4659 44.9045 17.4659C45.3069 17.4659 45.6739 17.4091 46.0053 17.2955C46.3368 17.1771 46.6232 17.0019 46.8647 16.7699C47.1062 16.5379 47.2908 16.2514 47.4187 15.9105L49.4286 16.2727C49.2676 16.8646 48.9788 17.383 48.5621 17.8281C48.1502 18.2685 47.6317 18.6117 47.0067 18.858C46.3865 19.0994 45.6786 19.2202 44.8832 19.2202ZM60.0945 10.7543L58.1697 11.0952C58.0893 10.849 57.9614 10.6146 57.7862 10.392C57.6158 10.1695 57.3838 9.98722 57.0902 9.84517C56.7966 9.70312 56.4297 9.6321 55.9893 9.6321C55.388 9.6321 54.8861 9.76705 54.4837 10.0369C54.0812 10.3021 53.88 10.6454 53.88 11.0668C53.88 11.4313 54.0149 11.7249 54.2848 11.9474C54.5547 12.17 54.9903 12.3523 55.5916 12.4943L57.3246 12.892C58.3284 13.1241 59.0765 13.4815 59.5689 13.9645C60.0613 14.4474 60.3075 15.0748 60.3075 15.8466C60.3075 16.5 60.1181 17.0824 59.7393 17.5938C59.3653 18.1004 58.8421 18.4981 58.1697 18.7869C57.5021 19.0758 56.728 19.2202 55.8473 19.2202C54.6257 19.2202 53.629 18.9598 52.8572 18.4389C52.0855 17.9134 51.612 17.1676 51.4368 16.2017L53.4893 15.8892C53.6172 16.4242 53.88 16.8291 54.2777 17.1037C54.6754 17.3736 55.1939 17.5085 55.8331 17.5085C56.5291 17.5085 57.0855 17.3641 57.5021 17.0753C57.9188 16.7817 58.1271 16.4242 58.1271 16.0028C58.1271 15.6619 57.9993 15.3755 57.7436 15.1435C57.4927 14.9115 57.1068 14.7363 56.5859 14.6179L54.7393 14.2131C53.7214 13.9811 52.9685 13.6117 52.4808 13.1051C51.9979 12.5985 51.7564 11.9569 51.7564 11.1804C51.7564 10.5365 51.9363 9.97301 52.2962 9.49006C52.656 9.0071 53.1532 8.63068 53.7876 8.3608C54.4221 8.08617 55.1489 7.94886 55.968 7.94886C57.147 7.94886 58.075 8.20455 58.7521 8.71591C59.4292 9.22254 59.8767 9.90199 60.0945 10.7543ZM69.5529 14.4759V8.09091H71.6836V19H69.5955V17.1108H69.4819C69.2309 17.6932 68.8285 18.1785 68.2745 18.5668C67.7253 18.9503 67.0411 19.142 66.2219 19.142C65.5212 19.142 64.9009 18.9882 64.3612 18.6804C63.8261 18.3679 63.4047 17.9062 63.0969 17.2955C62.7939 16.6847 62.6424 15.9295 62.6424 15.0298V8.09091H64.766V14.7741C64.766 15.5175 64.9719 16.1094 65.3839 16.5497C65.7958 16.9901 66.3308 17.2102 66.989 17.2102C67.3867 17.2102 67.7821 17.1108 68.1751 16.9119C68.5728 16.7131 68.9019 16.4124 69.1623 16.0099C69.4274 15.6075 69.5576 15.0961 69.5529 14.4759ZM74.5369 19V8.09091H76.5753V9.86648H76.7102C76.9375 9.26515 77.3092 8.7964 77.8253 8.46023C78.3414 8.11932 78.9593 7.94886 79.679 7.94886C80.4081 7.94886 81.0189 8.11932 81.5114 8.46023C82.0085 8.80114 82.3755 9.26989 82.6122 9.86648H82.7259C82.9863 9.28409 83.4006 8.82008 83.9688 8.47443C84.5369 8.12405 85.214 7.94886 86 7.94886C86.9896 7.94886 87.7969 8.259 88.4219 8.87926C89.0516 9.49953 89.3665 10.4347 89.3665 11.6847V19H87.2429V11.8835C87.2429 11.1449 87.0417 10.6098 86.6392 10.2784C86.2367 9.94697 85.7562 9.78125 85.1974 9.78125C84.5062 9.78125 83.9688 9.99432 83.5852 10.4205C83.2017 10.8419 83.0099 11.384 83.0099 12.0469V19H80.8935V11.7486C80.8935 11.1567 80.7088 10.6809 80.3395 10.321C79.9702 9.96117 79.4896 9.78125 78.8977 9.78125C78.4953 9.78125 78.1236 9.88778 77.7827 10.1009C77.4465 10.3092 77.1742 10.6004 76.9659 10.9744C76.7623 11.3485 76.6605 11.7817 76.6605 12.2741V19H74.5369ZM96.9144 19.2202C95.8396 19.2202 94.9139 18.9905 94.1374 18.5312C93.3656 18.0672 92.7691 17.4162 92.3477 16.5781C91.931 15.7353 91.7227 14.7481 91.7227 13.6165C91.7227 12.4991 91.931 11.5142 92.3477 10.6619C92.7691 9.80966 93.3562 9.14441 94.109 8.66619C94.8666 8.18797 95.752 7.94886 96.7653 7.94886C97.3808 7.94886 97.9774 8.05066 98.555 8.25426C99.1327 8.45786 99.6512 8.77746 100.11 9.21307C100.57 9.64867 100.932 10.2145 101.197 10.9105C101.462 11.6018 101.595 12.4422 101.595 13.4318V14.1847H92.9229V12.5938H99.5138C99.5138 12.035 99.4002 11.5402 99.1729 11.1094C98.9457 10.6738 98.6261 10.3305 98.2141 10.0795C97.8069 9.8286 97.3287 9.70312 96.7795 9.70312C96.1829 9.70312 95.6621 9.84991 95.217 10.1435C94.7766 10.4323 94.4357 10.8111 94.1942 11.2798C93.9575 11.7438 93.8391 12.2481 93.8391 12.7926V14.0355C93.8391 14.7647 93.967 15.3849 94.2227 15.8963C94.4831 16.4077 94.8453 16.7983 95.3093 17.0682C95.7733 17.3333 96.3155 17.4659 96.9357 17.4659C97.3382 17.4659 97.7051 17.4091 98.0366 17.2955C98.368 17.1771 98.6545 17.0019 98.896 16.7699C99.1374 16.5379 99.3221 16.2514 99.4499 15.9105L101.46 16.2727C101.299 16.8646 101.01 17.383 100.593 17.8281C100.181 18.2685 99.663 18.6117 99.038 18.858C98.4177 19.0994 97.7099 19.2202 96.9144 19.2202ZM109.414 19V4.45455H114.741C115.773 4.45455 116.628 4.625 117.305 4.96591C117.982 5.30208 118.489 5.759 118.825 6.33665C119.161 6.90956 119.329 7.55587 119.329 8.27557C119.329 8.88163 119.218 9.39299 118.995 9.80966C118.773 10.2216 118.475 10.553 118.1 10.804C117.731 11.0502 117.324 11.2301 116.879 11.3438V11.4858C117.362 11.5095 117.833 11.6657 118.292 11.9545C118.756 12.2386 119.14 12.6435 119.443 13.169C119.746 13.6946 119.897 14.3338 119.897 15.0866C119.897 15.83 119.722 16.4976 119.372 17.0895C119.026 17.6766 118.491 18.143 117.767 18.4886C117.042 18.8295 116.117 19 114.99 19H109.414ZM111.609 17.1179H114.777C115.828 17.1179 116.581 16.9143 117.035 16.5071C117.49 16.0999 117.717 15.5909 117.717 14.9801C117.717 14.5208 117.601 14.0994 117.369 13.7159C117.137 13.3324 116.806 13.027 116.375 12.7997C115.949 12.5724 115.442 12.4588 114.855 12.4588H111.609V17.1179ZM111.609 10.7472H114.549C115.042 10.7472 115.484 10.6525 115.877 10.4631C116.275 10.2737 116.59 10.0085 116.822 9.66761C117.059 9.32197 117.177 8.91477 117.177 8.44602C117.177 7.8447 116.967 7.34044 116.545 6.93324C116.124 6.52604 115.477 6.32244 114.606 6.32244H111.609V10.7472ZM129.24 14.4759V8.09091H131.371V19H129.283V17.1108H129.169C128.918 17.6932 128.516 18.1785 127.962 18.5668C127.413 18.9503 126.729 19.142 125.909 19.142C125.209 19.142 124.588 18.9882 124.049 18.6804C123.514 18.3679 123.092 17.9062 122.784 17.2955C122.481 16.6847 122.33 15.9295 122.33 15.0298V8.09091H124.453V14.7741C124.453 15.5175 124.659 16.1094 125.071 16.5497C125.483 16.9901 126.018 17.2102 126.676 17.2102C127.074 17.2102 127.47 17.1108 127.863 16.9119C128.26 16.7131 128.589 16.4124 128.85 16.0099C129.115 15.6075 129.245 15.0961 129.24 14.4759ZM134.224 19V8.09091H136.348V19H134.224ZM135.297 6.40767C134.928 6.40767 134.61 6.28456 134.345 6.03835C134.085 5.7874 133.955 5.48911 133.955 5.14347C133.955 4.79309 134.085 4.49479 134.345 4.24858C134.61 3.99763 134.928 3.87216 135.297 3.87216C135.666 3.87216 135.981 3.99763 136.241 4.24858C136.507 4.49479 136.639 4.79309 136.639 5.14347C136.639 5.48911 136.507 5.7874 136.241 6.03835C135.981 6.28456 135.666 6.40767 135.297 6.40767ZM141.328 4.45455V19H139.205V4.45455H141.328ZM148.269 19.2131C147.388 19.2131 146.603 18.9882 145.911 18.5384C145.225 18.0838 144.685 17.4375 144.292 16.5994C143.904 15.7566 143.71 14.7457 143.71 13.5668C143.71 12.3878 143.906 11.3793 144.299 10.5412C144.697 9.70312 145.241 9.06155 145.933 8.61648C146.624 8.1714 147.407 7.94886 148.283 7.94886C148.96 7.94886 149.505 8.0625 149.917 8.28977C150.334 8.51231 150.656 8.77273 150.883 9.07102C151.115 9.36932 151.295 9.6321 151.423 9.85938H151.55V4.45455H153.674V19H151.6V17.3026H151.423C151.295 17.5346 151.11 17.7997 150.869 18.098C150.632 18.3963 150.305 18.6567 149.888 18.8793C149.472 19.1018 148.932 19.2131 148.269 19.2131ZM148.738 17.402C149.349 17.402 149.865 17.241 150.286 16.919C150.712 16.5923 151.034 16.1402 151.252 15.5625C151.475 14.9848 151.586 14.3125 151.586 13.5455C151.586 12.7879 151.477 12.125 151.259 11.5568C151.041 10.9886 150.722 10.5459 150.3 10.2287C149.879 9.91146 149.358 9.75284 148.738 9.75284C148.099 9.75284 147.566 9.91856 147.14 10.25C146.714 10.5814 146.392 11.0336 146.174 11.6065C145.961 12.1795 145.854 12.8258 145.854 13.5455C145.854 14.2746 145.963 14.9304 146.181 15.5128C146.399 16.0952 146.721 16.5568 147.147 16.8977C147.578 17.2339 148.108 17.402 148.738 17.402ZM161.407 19.2202C160.332 19.2202 159.406 18.9905 158.63 18.5312C157.858 18.0672 157.261 17.4162 156.84 16.5781C156.423 15.7353 156.215 14.7481 156.215 13.6165C156.215 12.4991 156.423 11.5142 156.84 10.6619C157.261 9.80966 157.848 9.14441 158.601 8.66619C159.359 8.18797 160.244 7.94886 161.257 7.94886C161.873 7.94886 162.47 8.05066 163.047 8.25426C163.625 8.45786 164.143 8.77746 164.603 9.21307C165.062 9.64867 165.424 10.2145 165.689 10.9105C165.954 11.6018 166.087 12.4422 166.087 13.4318V14.1847H157.415V12.5938H164.006C164.006 12.035 163.892 11.5402 163.665 11.1094C163.438 10.6738 163.118 10.3305 162.706 10.0795C162.299 9.8286 161.821 9.70312 161.272 9.70312C160.675 9.70312 160.154 9.84991 159.709 10.1435C159.269 10.4323 158.928 10.8111 158.686 11.2798C158.45 11.7438 158.331 12.2481 158.331 12.7926V14.0355C158.331 14.7647 158.459 15.3849 158.715 15.8963C158.975 16.4077 159.337 16.7983 159.801 17.0682C160.266 17.3333 160.808 17.4659 161.428 17.4659C161.83 17.4659 162.197 17.4091 162.529 17.2955C162.86 17.1771 163.147 17.0019 163.388 16.7699C163.63 16.5379 163.814 16.2514 163.942 15.9105L165.952 16.2727C165.791 16.8646 165.502 17.383 165.086 17.8281C164.674 18.2685 164.155 18.6117 163.53 18.858C162.91 19.0994 162.202 19.2202 161.407 19.2202ZM168.443 19V8.09091H170.496V9.82386H170.609C170.808 9.23674 171.159 8.77509 171.661 8.43892C172.167 8.09801 172.74 7.92756 173.379 7.92756C173.512 7.92756 173.668 7.93229 173.848 7.94176C174.033 7.95123 174.177 7.96307 174.281 7.97727V10.0085C174.196 9.98485 174.045 9.95881 173.827 9.9304C173.609 9.89725 173.391 9.88068 173.173 9.88068C172.671 9.88068 172.224 9.98722 171.831 10.2003C171.443 10.4086 171.135 10.6998 170.908 11.0739C170.68 11.4432 170.567 11.8646 170.567 12.3381V19H168.443Z" fill="#333333"/>
<defs>
<clipPath id="clip0_4_19">
<rect width="18" height="22" fill="white" transform="translate(0 1)"/>
</clipPath>
</defs>
</svg>
